<?xml version="1.0" encoding="UTF-8"?>
<svg width="131px" height="34px" viewBox="0 0 131 34" version="1.1" xmlns="http://www.w3.org/2000/svg" xmlns:xlink="http://www.w3.org/1999/xlink">
    <!-- Generator: Sketch 55 (78076) - https://sketchapp.com -->
    <title>Group 2</title>
    <desc>Created with Sketch.</desc>
    <defs>
        <rect id="path-1" x="0" y="0" width="26" height="26" rx="4"></rect>
        <filter x="-28.8%" y="-17.3%" width="157.7%" height="157.7%" filterUnits="objectBoundingBox" id="filter-2">
            <feOffset dx="0" dy="3" in="SourceAlpha" result="shadowOffsetOuter1"></feOffset>
            <feGaussianBlur stdDeviation="2" in="shadowOffsetOuter1" result="shadowBlurOuter1"></feGaussianBlur>
            <feComposite in="shadowBlurOuter1" in2="SourceAlpha" operator="out" result="shadowBlurOuter1"></feComposite>
            <feColorMatrix values="0 0 0 0 0   0 0 0 0 0   0 0 0 0 0  0 0 0 0.128414554 0" type="matrix" in="shadowBlurOuter1"></feColorMatrix>
        </filter>
    </defs>
    <g id="Home-Test" stroke="none" stroke-width="1" fill="none" fill-rule="evenodd">
        <g id="Desktop-HD-Copy-2" transform="translate(-96.000000, -58.000000)">
            <g id="Group-2" transform="translate(100.000000, 59.000000)">
                <text id="HappyFeel" font-family="Futura-Bold, Futura" font-size="12" font-weight="bold" letter-spacing="3" fill="#343333">
                    <tspan x="35" y="15">HappyFee</tspan>
                    <tspan x="124.208" y="15">l</tspan>
                </text>
                <g id="Rectangle">
                    <use fill="black" fill-opacity="1" filter="url(#filter-2)" xlink:href="#path-1"></use>
                    <rect stroke="#FF8378" stroke-width="0.25" stroke-linejoin="square" fill="#FFFFFF" fill-rule="evenodd" x="0.125" y="0.125" width="25.75" height="25.75" rx="4"></rect>
                </g>
                <g id="Group" transform="translate(6.000000, 6.000000)" stroke="#343333">
                    <path d="M7.30232485,8.55376545 L7.30232485,12.8231472" id="Line-2" stroke-width="0.25" stroke-linecap="square"></path>
                    <circle id="Oval" fill="#FFFFFF" cx="7.30232485" cy="8" r="1"></circle>
                    <path d="M0.802324852,3.5 L3.80232485,3.5 L3.80232485,2 C3.80232485,1.17157288 3.13075198,0.5 2.30232485,0.5 C1.47389773,0.5 0.802324852,1.17157288 0.802324852,2 L0.802324852,3.5 Z" id="Rectangle" fill="#343333"></path>
                    <path d="M10.8023249,3.5 L13.8023249,3.5 L13.8023249,2 C13.8023249,1.17157288 13.130752,0.5 12.3023249,0.5 C11.4738977,0.5 10.8023249,1.17157288 10.8023249,2 L10.8023249,3.5 Z" id="Rectangle-Copy-4" fill="#343333"></path>
                    <path d="M2.84217094e-14,9 C1.53488323,11.6760065 3.96899152,13.0140097 7.30232485,13.0140097 C10.6356582,13.0140097 13.1439025,11.6760065 14.8270579,9" id="Line-3" stroke-width="2" stroke-linecap="square"></path>
                </g>
            </g>
        </g>
    </g>
</svg>