<svg height="512pt" viewBox="0 0 512 512" width="512pt" xmlns="http://www.w3.org/2000/svg"><path d="m81.773438 270.765625c0 13.460937 10.953124 24.414063 24.417968 24.414063h31.449219c13.460937 0 24.414063-10.953126 24.414063-24.414063 0-13.464844-10.953126-24.417969-24.414063-24.417969h-31.449219c-13.464844 0-24.417968 10.953125-24.417968 24.417969zm65.28125 0c0 5.191406-4.222657 9.414063-9.414063 9.414063h-31.449219c-5.195312 0-9.417968-4.226563-9.417968-9.414063 0-5.191406 4.222656-9.417969 9.417968-9.417969h31.449219c5.191406 0 9.414063 4.226563 9.414063 9.417969zm-104.226563 20.46875c-9.804687 16.761719-11.167969 36.667969-3.734375 54.613281 7.429688 17.941406 22.46875 31.054688 41.257812 35.972656l13.160157 3.445313c16.242187 4.253906 28.972656 16.980469 33.222656 33.222656l3.445313 13.160157c4.917968 18.789062 18.03125 33.828124 35.972656 41.257812 17.945312 7.433594 37.851562 6.070312 54.613281-3.734375l11.742187-6.871094c14.488282-8.476562 32.496094-8.476562 46.984376 0l11.742187 6.871094c9.621094 5.628906 20.273437 8.472656 30.996094 8.472656 7.964843 0 15.96875-1.570312 23.617187-4.738281 17.941406-7.429688 31.054688-22.46875 35.972656-41.257812l3.445313-13.160157c4.253906-16.242187 16.980469-28.972656 33.222656-33.222656l13.160157-3.445313c18.789062-4.917968 33.828124-18.03125 41.257812-35.972656 7.433594-17.945312 6.070312-37.851562-3.734375-54.613281l-6.871094-11.742187c-8.476562-14.488282-8.476562-32.496094 0-46.984376l6.871094-11.742187c9.804687-16.761719 11.167969-36.667969 3.734375-54.613281-7.429688-17.941406-22.46875-31.054688-41.257812-35.972656l-13.160157-3.445313c-16.242187-4.253906-28.972656-16.980469-33.222656-33.222656l-3.445313-13.160157c-4.917968-18.789062-18.03125-33.828124-35.972656-41.257812-17.945312-7.433594-37.851562-6.070312-54.613281 3.734375l-11.742187 6.871094c-14.488282 8.476562-32.492188 8.476562-46.984376 0l-11.742187-6.871094c-16.761719-9.804687-36.667969-11.167969-54.613281-3.734375-17.941406 7.429688-31.054688 22.46875-35.972656 41.257812l-3.445313 13.160157c-3.605469 13.769531-13.132813 24.976562-26.140625 30.746093-3.785156 1.675782-5.496094 6.109376-3.816406 9.894532 1.679687 3.789062 6.113281 5.496094 9.898437 3.816406 17.203125-7.628906 29.800781-22.449219 34.570313-40.660156l3.445312-13.160156c3.71875-14.207032 13.632813-25.578126 27.203125-31.199219 13.570313-5.621094 28.621094-4.589844 41.296875 2.828125l11.742188 6.867187c19.164062 11.210938 42.972656 11.210938 62.132812 0l11.742188-6.867187c12.675781-7.417969 27.730468-8.449219 41.296875-2.828125 13.570312 5.621093 23.484375 16.992187 27.203125 31.199219l3.445312 13.160156c5.625 21.476562 22.460938 38.3125 43.9375 43.9375l13.160156 3.445312c14.207032 3.71875 25.578126 13.632813 31.199219 27.203125 5.621094 13.566407 4.589844 28.621094-2.828125 41.296875l-6.867187 11.738282c-11.210938 19.164062-11.210938 42.972656 0 62.136718l6.867187 11.742188c7.417969 12.675781 8.449219 27.726562 2.828125 41.296875-5.621093 13.566406-16.992187 23.484375-31.199219 27.203125l-13.160156 3.445312c-21.476562 5.621094-38.3125 22.457032-43.9375 43.933594l-3.445312 13.160156c-3.71875 14.207032-13.632813 25.582032-27.203125 31.199219-13.566407 5.621094-28.621094 4.589844-41.296875-2.824219l-11.742188-6.871094c-19.160156-11.207031-42.96875-11.210937-62.132812 0l-11.742188 6.871094c-12.675781 7.414063-27.726562 8.445313-41.296875 2.824219-13.566406-5.617187-23.484375-16.992187-27.203125-31.199219l-3.445312-13.160156c-5.625-21.476562-22.460938-38.3125-43.9375-43.933594l-13.160156-3.445312c-14.207032-3.71875-25.578126-13.632813-31.199219-27.203125-5.621094-13.566407-4.589844-28.621094 2.828125-41.296875l6.867187-11.742188c11.210938-19.160156 11.210938-42.96875 0-62.132812l-6.867187-11.742188c-6.457032-11.035156-8.101563-23.855468-4.632813-36.105468 3.453125-12.179688 11.757813-22.535157 22.789063-28.414063 3.65625-1.945313 5.042968-6.488281 3.09375-10.144531-1.945313-3.65625-6.488282-5.039063-10.144532-3.09375-14.617187 7.785156-25.613281 21.476562-30.167968 37.566406-4.59375 16.210938-2.421875 33.175781 6.113281 47.765625l6.871094 11.742187c8.476562 14.488282 8.476562 32.496094 0 46.984376zm275.347656 54.941406c-13.460937 0-24.414062 10.953125-24.414062 24.417969 0 13.460938 10.953125 24.414062 24.414062 24.414062h31.453125c13.460938 0 24.414063-10.953124 24.414063-24.414062 0-13.464844-10.953125-24.417969-24.414063-24.417969zm40.867188 24.417969c0 5.191406-4.222657 9.414062-9.414063 9.414062h-31.453125c-5.191406 0-9.414062-4.226562-9.414062-9.414062 0-5.191406 4.222656-9.417969 9.414062-9.417969h31.453125c5.191406 0 9.414063 4.226563 9.414063 9.417969zm77.976562-295.613281c-48.351562-48.351563-112.640625-74.980469-181.019531-74.980469s-132.667969 26.628906-181.019531 74.980469c-48.351563 48.351562-74.980469 112.640625-74.980469 181.019531s26.628906 132.667969 74.980469 181.019531c48.351562 48.351563 112.640625 74.980469 181.019531 74.980469 63.230469 0 123.941406-23.242188 170.953125-65.441406 3.082031-2.769532 3.339844-7.511719.574219-10.59375-2.769532-3.082032-7.511719-3.335938-10.59375-.570313-44.253906 39.726563-101.40625 61.605469-160.933594 61.605469-64.375 0-124.894531-25.066406-170.414062-70.585938-45.519532-45.519531-70.585938-106.039062-70.585938-170.414062s25.066406-124.894531 70.585938-170.414062c45.519531-45.519532 106.039062-70.585938 170.414062-70.585938s124.894531 25.066406 170.414062 70.585938c45.519532 45.519531 70.585938 106.042968 70.585938 170.414062 0 56.355469-19.855469 111.175781-55.914062 154.359375-2.652344 3.179687-2.230469 7.910156.949218 10.566406 3.179688 2.652344 7.910156 2.226563 10.566406-.953125 38.304688-45.875 59.398438-104.109375 59.398438-163.972656 0-68.378906-26.628906-132.667969-74.980469-181.019531zm-261.566406 52.332031c-4.609375-4.613281-10.742187-7.152344-17.261719-7.152344-6.523437 0-12.65625 2.539063-17.265625 7.152344-4.609375 4.609375-7.148437 10.742188-7.148437 17.261719 0 6.523437 2.539062 12.652343 7.148437 17.265625l22.238281 22.238281c4.613282 4.613281 10.742188 7.152344 17.265626 7.152344 6.523437 0 12.652343-2.539063 17.265624-7.152344 4.609376-4.609375 7.148438-10.742187 7.148438-17.265625 0-6.519531-2.539062-12.652344-7.148438-17.261719zm11.632813 46.160156c-1.777344 1.777344-4.140626 2.757813-6.65625 2.757813-2.515626 0-4.878907-.980469-6.65625-2.757813l-22.242188-22.242187c-1.777344-1.777344-2.757812-4.140625-2.757812-6.65625s.980468-4.878907 2.757812-6.660157c1.78125-1.777343 4.144531-2.757812 6.65625-2.757812 2.515625 0 4.878906.980469 6.660156 2.757812l22.238282 22.242188c1.777343 1.777344 2.757812 4.140625 2.757812 6.65625.003906 2.515625-.976562 4.878906-2.757812 6.660156zm-5.355469 82.527344c0 40.949219 33.316406 74.269531 74.269531 74.269531s74.269531-33.316406 74.269531-74.269531-33.320312-74.269531-74.269531-74.269531-74.269531 33.320312-74.269531 74.269531zm133.539062 0c0 32.679688-26.589843 59.269531-59.269531 59.269531s-59.269531-26.589843-59.269531-59.269531 26.589843-59.269531 59.269531-59.269531 59.269531 26.589843 59.269531 59.269531zm-132.179687 94.238281-22.242188 22.238281c-4.609375 4.613282-7.148437 10.742188-7.148437 17.265626 0 6.523437 2.539062 12.652343 7.148437 17.265624 4.613282 4.609376 10.746094 7.148438 17.265625 7.148438 6.523438 0 12.652344-2.539062 17.265625-7.148438l22.238282-22.242187c9.519531-9.519531 9.519531-25.007813 0-34.527344-4.613282-4.613281-10.746094-7.152343-17.265626-7.152343-6.523437 0-12.652343 2.539062-17.261718 7.152343zm23.921875 23.921875-22.242188 22.238282c-1.777343 1.777343-4.140625 2.757812-6.65625 2.757812s-4.878906-.980469-6.660156-2.757812c-1.777344-1.777344-2.753906-4.140626-2.753906-6.65625 0-2.515626.976562-4.882813 2.757812-6.660157l22.238281-22.238281c1.777344-1.777344 4.140626-2.757812 6.65625-2.757812 2.515626 0 4.878907.980468 6.660157 2.757812 3.667969 3.671875 3.667969 9.644531 0 13.316406zm196.070312-89.734375c6.523438 0 12.652344-2.539062 17.265625-7.152343 9.519532-9.519532 9.519532-25.007813 0-34.527344l-22.242187-22.238282c-4.613281-4.613281-10.742188-7.152343-17.265625-7.152343-6.519532 0-12.652344 2.539062-17.261719 7.152343-4.609375 4.609376-7.152344 10.742188-7.152344 17.261719 0 6.523438 2.542969 12.652344 7.152344 17.265625l22.238281 22.238282c4.613282 4.613281 10.742188 7.152343 17.265625 7.152343zm-31.65625-46.65625c0-2.515625.980469-4.878906 2.757813-6.65625 1.78125-1.777343 4.144531-2.757812 6.65625-2.757812 2.515625 0 4.878906.980469 6.660156 2.757812l22.238281 22.238281c3.671875 3.671876 3.671875 9.644532 0 13.316407-1.777343 1.777343-4.140625 2.757812-6.65625 2.757812s-4.878906-.980469-6.65625-2.761719l-22.242187-22.238281c-1.777344-1.777343-2.757813-4.140625-2.757813-6.65625zm-43.890625-168.574219c-6.523437 0-12.652344 2.539063-17.265625 7.152344l-22.238281 22.238282c-9.519531 9.519531-9.519531 25.007812 0 34.527343 4.609375 4.613281 10.742188 7.152344 17.265625 7.152344s12.652344-2.539063 17.261719-7.152344l22.242187-22.238281c9.519531-9.519531 9.519531-25.007812 0-34.527344-4.613281-4.613281-10.742187-7.152344-17.265625-7.152344zm6.65625 31.074219-22.238281 22.238281c-1.777344 1.777344-4.140625 2.757813-6.65625 2.757813s-4.878906-.980469-6.660156-2.757813c-3.667969-3.667968-3.667969-9.644531 0-13.3125l22.242187-22.242187c1.777344-1.777344 4.140625-2.757813 6.65625-2.757813s4.878906.980469 6.65625 2.757813c3.671875 3.671875 3.671875 9.644531 0 13.316406zm0 0"/></svg>