<?xml version="1.0"?>
<svg xmlns="http://www.w3.org/2000/svg" height="512px" viewBox="0 -30 511.99995 511" width="512px" class=""><g><path d="m185.152344 129.527344v-13.222656c0-4.144532-3.355469-7.5-7.5-7.5-4.140625 0-7.5 3.355468-7.5 7.5v13.222656c0 4.140625 3.359375 7.5 7.5 7.5 4.144531 0 7.5-3.359375 7.5-7.5zm272.480468 233.304687c-4.101562-.601562-7.90625 2.238281-8.503906 6.335938-.214844 1.453125-.59375 2.890625-1.128906 4.277343-3.082031 7.96875-10.585938 13.117188-19.121094 13.117188-2.683594 0-5.316406-.527344-7.828125-1.566406-37.453125-15.511719-80.308593-59.40625-101.898437-104.371094-1.644532-3.429688-5.601563-5.082031-9.199219-3.84375-3.601563 1.238281-5.699219 4.976562-4.886719 8.695312 8.152344 37.234376 25.933594 87.386719 51.382813 116.476563 7.636719 8.730469 7.097656 21.886719-1.203125 29.332031-3.765625 3.382813-8.621094 5.242188-13.671875 5.242188-5.863281 0-11.457031-2.515625-15.34375-6.902344-32.863281-37.109375-54.027344-98.492188-62.871094-143.558594-.691406-3.519531-3.773437-6.058594-7.359375-6.058594s-6.667969 2.539063-7.359375 6.058594c-13.492187 68.734375-41.324219 119.226563-62.871094 143.558594-3.886719 4.386719-9.480469 6.902344-15.34375 6.902344-5.050781 0-9.902343-1.859375-13.667969-5.234375-8.304687-7.445313-8.84375-20.609375-1.203124-29.347657 25.449218-29.09375 43.226562-79.238281 51.378906-116.46875.8125-3.71875-1.285156-7.457031-4.886719-8.695312-3.597656-1.238281-7.554687.414062-9.203125 3.84375-21.585938 44.964844-64.441406 88.859375-101.894531 104.371094-2.511719 1.039062-5.144531 1.566406-7.828125 1.566406-8.535156 0-16.039063-5.148438-19.121094-13.113281-3.949219-10.207031 1.316406-22.089844 11.734375-26.496094 19.113281-8.074219 42.332031-28.160156 60.601563-52.421875 8.613281-11.4375 15.910156-23.539062 21.105468-35 1.550782-3.417969.332032-7.457031-2.851562-9.453125-3.179688-1.992187-7.34375-1.324219-9.746094 1.5625-1.074219 1.289063-2.03125 2.402344-2.925781 3.402344-21.703125 24.265625-50.175781 37.628906-80.167969 37.628906-10.917969 0-21.71875-1.566406-32.097656-4.660156-5.269532-1.570313-9.605469-5.101563-12.203125-9.949219-2.597657-4.84375-3.144531-10.410156-1.539063-15.667969 3.242188-10.605469 14.976563-16.632812 26.164063-13.429687 6.355469 1.820312 12.976562 2.742187 19.675781 2.742187 18.179688 0 35.808594-8.515625 49.636719-23.976562 10.03125-11.210938 16.9375-24.789063 19.972656-39.265625 1.523437-7.25 1.578125-14.613282.164063-21.886719-1.546876-7.957031-2.328126-16.125-2.328126-24.273437 0-28.082032 8.988282-54.683594 25.992188-76.933594 2.515625-3.289063 1.886719-7.996094-1.402344-10.511719-3.292968-2.515625-8-1.886719-10.515625 1.40625-19.019531 24.886719-29.074219 54.636719-29.074219 86.039063 0 9.105468.875 18.234374 2.605469 27.132812 1.027344 5.300781.988281 10.664062-.121093 15.949219-2.496094 11.902343-8.191407 23.089843-16.472657 32.34375-10.945312 12.238281-24.601562 18.976562-38.457031 18.976562-5.300781 0-10.53125-.726562-15.546875-2.164062-19-5.4375-39.023437 5.09375-44.636719 23.46875-2.78125 9.113281-1.835937 18.753906 2.664063 27.144531 2.347656 4.367188 5.511719 8.113281 9.289062 11.09375 2.722657 9.574219 11.527344 16.59375 21.980469 16.59375 5.773438 0 11.039062-2.148438 15.058594-5.679688 3.710937.324219 7.445312.507813 11.191406.507813 4.425781 0 8.820312-.265625 13.171875-.761719 3.675781 2.523438 8.121094 4.007813 12.917969 4.007813 9.125 0 16.992187-5.351563 20.652344-13.085938 3.414062-1.496093 6.773437-3.15625 10.066406-4.980469-15.613282 18.886719-33.730469 33.976563-48.664063 40.289063-17.804687 7.523437-26.726562 28.035156-19.882812 45.722656 5.042969 13.027344 16.921875 21.691407 30.679687 22.609375 4.011719 3.484375 9.238282 5.609375 14.972656 5.609375 11.5 0 21.011719-8.492187 22.617188-19.546875 4.703125-2.957031 9.398438-6.222656 14.054688-9.765625 7.128906 1.304688 14.757812-.78125 20.273437-6.296875 4.847656-4.847656 7.050781-11.335937 6.621094-17.679687 6.148437-6.332031 12.066406-13.058594 17.644531-20.078125-9.34375 24.136718-20.738281 44.785156-32.605469 58.355468-13.019531 14.886719-11.910156 37.488282 2.472657 50.386719 6.523437 5.851563 14.933593 9.070313 23.683593 9.070313 3.648438 0 7.230469-.570313 10.640625-1.644532 2.726563 1.152344 5.722656 1.792969 8.867188 1.792969 12.625 0 22.859375-10.234375 22.859375-22.855469 0-2.765624-.503907-5.40625-1.402344-7.859374 3.558594-5.21875 6.957031-10.683594 10.1875-16.332032 11.164063-1.503906 19.773437-11.066406 19.773437-22.640625 0-4.140625-1.105468-8.015625-3.03125-11.363281 7.171876-16.902344 13.074219-34.277344 17.679688-50.796875 4.605469 16.519531 10.507812 33.894531 17.679688 50.796875-1.921876 3.347656-3.03125 7.222656-3.03125 11.363281 0 11.574219 8.609374 21.136719 19.773437 22.640625 3.234375 5.648438 6.628906 11.113282 10.191406 16.335938-.902343 2.449218-1.402343 5.09375-1.402343 7.855468 0 12.625 10.234374 22.859376 22.855468 22.859376 3.144532 0 6.140625-.644532 8.867188-1.796876 3.410156 1.074219 6.996094 1.644532 10.644531 1.644532 8.753906 0 17.164063-3.222656 23.6875-9.078125 14.378906-12.898438 15.484375-35.496094 2.472656-50.371094-11.871093-13.574219-23.265625-34.222656-32.613281-58.363281 5.578125 7.019531 11.496094 13.746094 17.644531 20.078125-.429687 6.34375 1.773438 12.832031 6.625 17.679687 5.515625 5.515625 13.140625 7.601563 20.273438 6.296875 4.652343 3.542969 9.347656 6.808594 14.054687 9.765625 1.601563 11.054688 11.113282 19.546875 22.613282 19.546875 5.734374 0 10.960937-2.125 14.972656-5.609375 13.761718-.917968 25.644531-9.585937 30.683594-22.613281.9375-2.429687 1.605468-4.960937 1.980468-7.519531.597656-4.101563-2.238281-7.90625-6.339844-8.507813zm52.800782-104.816406c-5.613282-18.378906-25.636719-28.90625-44.636719-23.46875-5.015625 1.433594-10.246094 2.164063-15.546875 2.164063-13.855469 0-27.511719-6.742188-38.457031-18.976563-8.347657-9.328125-14.0625-20.605469-16.527344-32.605469-1.066406-5.183594-1.101563-10.398437-.105469-15.488281 2.121094-10.828125 2.972656-21.949219 2.53125-33.050781-1.441406-36.378906-16.746094-70.472656-43.09375-96-26.339844-25.527344-60.898437-39.761719-97.3125-40.085938-32.164062-.277344-62.578125 9.933594-87.949218 29.550782-3.277344 2.535156-3.878907 7.246093-1.347657 10.519531 2.535157 3.28125 7.246094 3.882812 10.519531 1.347656 22.6875-17.539063 49.902344-26.640625 78.644532-26.417969 32.546875.289063 63.445312 13.023438 87.007812 35.855469 23.566406 22.835937 37.253906 53.3125 38.542969 85.824219.394531 9.9375-.367187 19.890625-2.261719 29.574218-1.378906 7.050782-1.335937 14.25.132813 21.390626 3 14.59375 9.929687 28.28125 20.039062 39.585937 13.828125 15.457031 31.457031 23.972656 49.636719 23.972656 6.695312 0 13.316406-.921875 19.675781-2.742187 11.1875-3.199219 22.921875 2.824218 26.164063 13.429687 1.605468 5.261719 1.058594 10.828125-1.539063 15.671875-2.601562 4.84375-6.933593 8.378906-12.203125 9.945313-10.378906 3.09375-21.179687 4.664062-32.097656 4.664062-29.992188 0-58.464844-13.363281-80.171875-37.632812-.894531-.996094-1.847656-2.109375-2.921875-3.402344-2.402344-2.886719-6.566406-3.554687-9.75-1.558594-3.179688 1.992188-4.398438 6.03125-2.847656 9.453125 5.195312 11.457032 12.492187 23.5625 21.105468 35 18.269532 24.257813 41.492188 44.347656 60.605469 52.421875.515625.21875 1.03125.460938 1.535157.722657 1.101562.570312 2.28125.839843 3.441406.839843 2.710937 0 5.332031-1.480469 6.664062-4.054687 1.902344-3.679688.464844-8.203125-3.214844-10.109375-.84375-.4375-1.714843-.84375-2.589843-1.214844-14.929688-6.308594-33.050781-21.398437-48.664063-40.285156 3.292969 1.820312 6.648438 3.484375 10.0625 4.976562 3.664063 7.734375 11.53125 13.085938 20.65625 13.085938 4.796875 0 9.242188-1.484375 12.917969-4.007813 4.351563.496094 8.746094.761719 13.171875.761719 3.746094 0 7.476562-.179687 11.1875-.507813 4.023438 3.53125 9.289062 5.679688 15.0625 5.679688 10.449219 0 19.257812-7.015625 21.980469-16.59375 3.777343-2.976562 6.941406-6.722656 9.285156-11.09375 4.503906-8.390625 5.449219-18.03125 2.667969-27.140625zm-222.09375-118.371094c0-24.292969-21.84375-24.292969-32.339844-24.292969s-32.339844 0-32.339844 24.292969c0 19.460938 14.507813 35.296875 32.339844 35.296875s32.339844-15.835937 32.339844-35.296875zm-49.679688 0c0-6.445312.699219-9.292969 17.339844-9.292969 16.636719 0 17.339844 2.847657 17.339844 9.292969 0 11.191407-7.78125 20.296875-17.339844 20.296875-9.5625 0-17.339844-9.105468-17.339844-20.296875zm103.1875-10.117187v-13.222656c0-4.144532-3.359375-7.5-7.5-7.5-4.144531 0-7.5 3.355468-7.5 7.5v13.222656c0 4.140625 3.355469 7.5 7.5 7.5 4.140625 0 7.5-3.359375 7.5-7.5zm0 0" data-original="#000000" class="active-path" data-old_color="#000000" fill="#FF8378"/></g> </svg>
